<svg width="110" height="60" viewBox="0 0 110 60" fill="none" xmlns="http://www.w3.org/2000/svg">
<path d="M17.1644 0.206051C16.4917 0.647495 16.5201 0.36301 16.5011 7.00424C16.4917 10.2905 16.4632 13.0373 16.4348 13.1157C16.3969 13.2237 15.364 13.2433 10.8345 13.2433C5.50906 13.2433 5.26269 13.2531 4.87418 13.4395C4.60885 13.5572 4.38143 13.7632 4.25824 13.979C4.05925 14.3322 4.05925 14.4008 4.05925 20.3946C4.05925 27.0947 4.03082 26.82 4.66571 27.3203L4.97841 27.5656H10.6829C15.6672 27.5656 16.3874 27.5852 16.4348 27.7127C16.4727 27.7912 16.5011 30.1848 16.5106 33.0395C16.5296 37.6501 16.5485 38.2583 16.6906 38.631C16.9465 39.2981 17.1455 39.5433 17.5814 39.7395C17.9509 39.9063 18.2826 39.9259 20.8601 39.9259C29.5968 39.9455 30.4023 39.9259 30.4023 39.7886C30.4023 39.7199 30.0896 39.4649 29.72 39.2294C27.6448 37.964 25.7117 35.8549 24.7831 33.834C24.0913 32.3135 23.5796 30.1259 23.5796 28.6643C23.5796 27.9776 23.845 25.8096 23.9587 25.5938C24.0061 25.5055 24.0724 25.2603 24.1103 25.0641C24.1482 24.8581 24.2335 24.5736 24.2998 24.4363C24.3756 24.2989 24.4325 24.1322 24.4325 24.0831C24.4325 23.8967 25.3422 22.1211 25.7875 21.4148C26.4603 20.375 27.4079 19.2861 30.3075 16.2549C31.7384 14.754 32.9229 13.4591 32.9418 13.3806C32.9703 13.2727 32.7808 13.2433 31.8805 13.2433C31.2551 13.2433 30.7719 13.204 30.734 13.1452C30.7055 13.0863 30.6581 10.4965 30.6392 7.37701C30.6013 1.09874 30.6013 1.05951 29.9854 0.353199L29.6821 4.57764e-05H23.5796C17.5719 4.57764e-05 17.4582 0.00985718 17.1644 0.206051Z" fill="#0C4A6E"/>
<path d="M50.3017 1.28508C50.1217 1.32433 49.7711 1.4028 49.5247 1.46166C49.2783 1.52052 49.0035 1.599 48.9088 1.64805C48.814 1.6971 48.5297 1.83443 48.2644 1.95215C48.0086 2.07968 47.6674 2.23664 47.5063 2.32492C47.1273 2.53093 45.5827 3.71791 45.5448 3.82582C45.5259 3.87487 44.8341 4.64004 43.9908 5.51311C43.1569 6.39599 41.8966 7.74974 41.2048 8.53453C39.6224 10.3003 38.8359 11.1537 36.8649 13.2334C34.9886 15.2052 30.7813 19.6981 29.2273 21.3854C27.5595 23.2002 26.8678 24.24 26.375 25.7017C26.0908 26.5257 25.8254 28.6054 25.9107 29.3313C26.1476 31.4208 26.5551 32.6568 27.5121 34.1381C28.0712 35.0014 29.0946 36.1491 29.6632 36.5513C29.8906 36.7083 30.0896 36.8554 30.118 36.8848C30.2223 37.0124 31.1698 37.5715 31.6057 37.7677C31.8521 37.8854 32.1459 38.013 32.2501 38.062C32.3543 38.1111 32.7997 38.2484 33.2356 38.3661C33.9368 38.5427 34.24 38.5721 35.5382 38.5329C36.5332 38.5133 37.0733 38.4544 37.1491 38.3759C37.2155 38.3073 37.3671 38.2582 37.4998 38.2582C37.6419 38.2582 37.8598 38.1994 37.9925 38.1209C38.1252 38.0522 38.3526 37.9639 38.4947 37.9247C38.6369 37.8854 38.9211 37.7481 39.1296 37.6206C39.3286 37.4832 39.5371 37.3753 39.5845 37.3753C39.6413 37.3753 40.0962 37.0516 40.6079 36.6494C41.2333 36.1687 41.944 35.4624 42.7684 34.5207C43.4506 33.7457 47.3926 29.5962 51.5336 25.3093C55.6746 21.0224 59.247 17.2652 59.4649 16.971C60.2514 15.9017 60.8958 14.3615 61.199 12.8508C61.4075 11.8012 61.199 8.29909 60.9053 7.99499C60.8579 7.94594 60.82 7.84784 60.82 7.76936C60.82 7.54374 60.1662 6.06246 60.043 6.0036C59.9956 5.98398 59.9672 5.92512 59.9672 5.88588C59.9672 5.67987 59.3133 4.79699 58.65 4.1005C57.9867 3.404 56.6316 2.35435 56.3853 2.35435C56.3284 2.35435 56.2716 2.32492 56.2526 2.27588C56.2052 2.16796 55.3429 1.76577 55.1534 1.76577C55.0586 1.76577 54.9449 1.72652 54.8881 1.66767C54.8407 1.61862 54.5848 1.52052 54.329 1.47147C54.0637 1.41261 53.6846 1.32433 53.4762 1.27528C53.0118 1.16737 50.7566 1.16737 50.3017 1.28508ZM53.0497 3.43343C53.4383 3.5021 53.8931 3.61982 54.0637 3.68848C54.2248 3.76696 54.3953 3.82582 54.4522 3.82582C54.5754 3.82582 55.6177 4.4046 55.8072 4.57137C55.883 4.64985 56.0062 4.70871 56.0631 4.70871C56.2242 4.70871 57.6266 6.18018 57.8825 6.62161C58.0056 6.83743 58.1288 7.03363 58.1573 7.06306C58.2994 7.19058 58.7637 8.3089 58.9911 9.07406C59.1238 9.52532 59.1617 9.97657 59.1617 11.036C59.1617 12.5565 59.0575 13.0372 58.4889 14.2831C57.9677 15.4406 57.9867 15.4112 52.756 20.8753C48.3686 25.4466 48.6245 25.2406 48.1696 24.6324C47.9517 24.3283 44.3319 20.5025 41.2048 17.2652C39.9824 15.99 38.8927 14.8618 38.798 14.7343L38.6179 14.5185L39.556 13.5179C40.731 12.2622 42.6168 10.2218 42.8631 9.94714C42.9674 9.82942 43.7539 8.97597 44.6162 8.04404C47.5063 4.92452 47.5727 4.85585 48.1981 4.5027C48.3876 4.39479 48.7287 4.19859 48.9561 4.07107C49.1741 3.94354 49.4868 3.81601 49.6384 3.77678C49.79 3.73753 49.9416 3.66887 49.9701 3.61982C50.008 3.57077 50.1691 3.53153 50.3302 3.52172C50.5007 3.52172 50.8892 3.45305 51.2019 3.38438C51.8084 3.23724 51.9505 3.23724 53.0497 3.43343Z" fill="#0C4A6E"/>
<path d="M48.8803 46.4985C47.1747 46.6064 45.9523 47.2734 45.4027 48.4114C45.0521 49.1373 45.0521 50.7461 45.4027 51.4132C45.9049 52.3941 46.4735 52.9042 47.5537 53.3653C47.838 53.483 48.2075 53.64 48.3592 53.7087C49.1551 54.0716 49.3447 54.1501 49.4394 54.1501C49.4963 54.1501 49.6195 54.1893 49.7142 54.2384C49.7995 54.2972 50.0838 54.4346 50.3396 54.5621C50.5955 54.6896 51.0219 54.9937 51.2872 55.239L51.7705 55.7L51.761 56.3475C51.761 56.9459 51.7326 57.0244 51.4483 57.3187C50.7092 58.1231 48.634 58.2113 47.6958 57.4854C47.44 57.2892 47.1747 56.8478 47.1747 56.6222C47.1747 56.2788 46.9378 56.1807 46.2934 56.2494C45.6206 56.3181 44.7962 56.5044 44.673 56.6124C44.6351 56.6516 44.6636 56.8282 44.7488 57.0047C44.8341 57.1813 44.9004 57.3971 44.9004 57.4854C44.9004 57.9563 46.3408 59.4474 46.8051 59.4474C46.8809 59.4474 46.9852 59.4866 47.042 59.5357C47.1462 59.6436 48.5297 59.9281 49.212 59.9967C49.6763 60.036 51.5999 59.7122 51.9032 59.5357C51.9884 59.4964 52.2159 59.3787 52.4149 59.2904C52.8602 59.0844 53.5425 58.4075 53.751 57.9661C54.1016 57.1813 54.31 55.8079 54.0921 55.6706C54.0447 55.6412 53.9973 55.4744 53.9973 55.3076C53.9973 54.9643 53.7794 54.4346 53.4477 53.9735C53.2108 53.6498 52.2064 52.9141 51.6283 52.6492C50.605 52.1783 50.3965 52.09 50.3017 52.09C50.2543 52.09 50.1312 52.0508 50.0364 51.9919C49.9511 51.9429 49.6668 51.8056 49.4015 51.6976C48.5297 51.3151 48.2928 51.1581 47.8759 50.6774C47.5253 50.2752 47.4589 50.1477 47.4589 49.7945C47.4684 49.3531 47.6769 49.0294 48.1696 48.6958C48.4065 48.5389 48.6245 48.5095 49.4963 48.5095C50.3775 48.5095 50.586 48.5389 50.8229 48.7057C51.1546 48.9313 51.4294 49.2452 51.4388 49.4022C51.4388 49.461 51.5241 49.6278 51.6378 49.7651C51.8084 50.0005 51.8747 50.0202 52.2727 49.9613C52.5191 49.9319 52.756 49.8632 52.8128 49.824C52.8602 49.7749 53.0118 49.7357 53.154 49.7357C53.7699 49.7357 54.0163 49.4806 53.8173 49.0686C53.7794 48.9803 53.6562 48.7253 53.5614 48.5095C53.2203 47.7639 52.0832 46.7927 51.5525 46.7927C51.4578 46.7927 51.3441 46.7535 51.2872 46.6946C51.1451 46.5475 49.8753 46.4396 48.8803 46.4985Z" fill="#0C4A6E"/>
<path d="M16.1695 46.7142C16.0084 46.881 15.9989 47.3224 15.9989 53.2672V59.6436L16.2168 59.6926C16.3306 59.722 18.2636 59.7318 20.5 59.722L24.5746 59.6926L24.603 58.7312L24.6315 57.7797H21.6465C20.0072 57.7797 18.6048 57.7503 18.5195 57.7208C18.3868 57.6718 18.3679 57.4167 18.3679 55.8766C18.3679 54.9054 18.4058 54.0422 18.4437 53.9833C18.5005 53.8852 19.2018 53.8558 21.2107 53.8361L23.9113 53.8067L23.9397 53.0317C23.9587 52.4726 23.9302 52.2273 23.845 52.1783C23.7786 52.1292 22.5183 52.09 21.0401 52.09H18.3679L18.3868 50.3439L18.4153 48.6075L21.4949 48.5585L24.5746 48.5094L24.603 47.5579L24.6315 46.5965L20.481 46.5769C16.6338 46.5475 16.3211 46.5573 16.1695 46.7142Z" fill="#0C4A6E"/>
<path d="M27.3037 46.675C27.1994 46.7829 27.1805 47.9993 27.1994 53.2475L27.2279 59.6926L29.7769 59.722C31.1793 59.7318 32.5249 59.7024 32.7618 59.6533C33.7852 59.4277 33.9652 59.3787 34.1453 59.2806C34.2495 59.2315 34.5054 59.0942 34.7138 58.9961C35.4056 58.6527 36.1731 57.8091 36.5711 56.936C36.7796 56.4946 36.9407 56.0826 36.9407 56.0041C36.9407 55.9256 37.007 55.6902 37.0828 55.4744C37.1871 55.1801 37.2155 54.5522 37.225 52.963C37.225 51.109 37.206 50.7656 37.0354 50.2163C36.9312 49.873 36.7891 49.4806 36.7322 49.3432C36.5711 49.0195 35.8889 48.068 35.813 48.068C35.7846 48.068 35.633 47.9404 35.4719 47.7933C35.2255 47.5578 34.7802 47.293 34.0505 46.9791C33.5578 46.7633 32.5154 46.6652 30.0801 46.6063C27.9386 46.5572 27.4079 46.5769 27.3037 46.675ZM32.4301 48.6565C32.487 48.7154 32.5818 48.7546 32.6576 48.7546C32.8566 48.7546 33.7473 49.2157 33.9842 49.4413C34.3064 49.7552 34.6191 50.3144 34.7991 50.9128C34.9318 51.3542 34.9507 51.7466 34.9223 53.12C34.9034 54.0323 34.837 54.9642 34.7802 55.1899C34.6001 55.8667 34.1832 56.6025 33.7757 56.9556C33.084 57.5737 32.6765 57.7012 31.2836 57.76C30.6013 57.7797 29.9285 57.7797 29.7958 57.7404L29.5495 57.6816V53.1298C29.5495 48.8724 29.5589 48.5683 29.72 48.5192C29.9854 48.4407 32.3354 48.5584 32.4301 48.6565Z" fill="#0C4A6E"/>
<path d="M56.8306 46.6751C56.6601 46.7928 56.6506 47.0282 56.6506 51.3053C56.6506 54.1992 56.6885 55.8276 56.7453 55.8669C56.8022 55.8963 56.8401 56.1415 56.8401 56.4064C56.8401 56.8576 56.9254 57.1617 57.3044 57.9662C57.9962 59.4769 60.7063 60.3401 63.0942 59.8104C63.8428 59.6436 64.7051 59.3297 64.7051 59.2316C64.7051 59.1826 64.762 59.1531 64.8283 59.1531C64.9704 59.1531 65.7285 58.3487 65.9654 57.9563C66.4487 57.1519 66.4487 57.1912 66.4771 51.7566C66.5055 48.6174 66.4771 46.6456 66.4297 46.6064C66.3729 46.577 65.8707 46.5672 65.3116 46.5966L64.2787 46.6456L64.2218 51.2072C64.1839 54.5229 64.1366 55.9061 64.0513 56.2494C63.8807 56.9067 63.189 57.613 62.5541 57.7896C61.2085 58.1427 59.8629 57.6817 59.4555 56.7301C59.3702 56.5241 59.247 56.2691 59.1807 56.1611C59.0954 56.014 59.0575 54.7093 59.0385 51.2857L59.0006 46.6064L58.0056 46.577C57.295 46.5574 56.9538 46.5868 56.8306 46.6751Z" fill="#0C4A6E"/>
<path d="M81.0321 46.5769C80.9089 46.5965 80.8142 46.6652 80.8047 46.7241C80.8047 46.7927 80.7952 49.7357 80.7858 53.2672L80.7763 59.6926H81.9608H83.1358L83.1832 57.6816L83.2305 55.6706L84.6045 55.6118C87.5516 55.494 88.954 54.7289 89.6078 52.9042C89.8068 52.3157 89.8447 49.6278 89.6552 49.4218C89.5889 49.3629 89.532 49.2158 89.532 49.098C89.532 48.8528 88.9729 47.9601 88.6129 47.6364C88.2149 47.2734 87.58 46.9693 86.8314 46.7829C86.3955 46.675 81.5343 46.5083 81.0321 46.5769ZM85.988 48.7057C86.1396 48.7841 86.3102 48.8528 86.3671 48.8528C86.4334 48.8528 86.6513 49.0294 86.8503 49.2452C87.2768 49.6768 87.3526 49.9515 87.3526 51.0698C87.3526 52.0508 87.2862 52.3157 86.9072 52.7767C86.4618 53.3163 85.9596 53.5321 84.9362 53.6498C84.4719 53.6988 83.9412 53.7675 83.7612 53.7969C83.1832 53.895 83.1832 53.895 83.1832 51.1091C83.1832 49.1765 83.2116 48.5585 83.3063 48.5193C83.5432 48.4015 85.7038 48.5487 85.988 48.7057Z" fill="#0C4A6E"/>
<path d="M92.4032 46.675C92.2232 46.8614 92.2232 59.5749 92.4032 59.7123C92.4696 59.7711 94.0331 59.7809 96.4021 59.7515L100.287 59.6926L100.316 58.8294C100.335 58.2604 100.306 57.9073 100.23 57.819C100.136 57.7013 99.6618 57.6718 97.4349 57.6816C95.9567 57.6915 94.7059 57.6718 94.649 57.6326C94.5827 57.5934 94.5543 55.808 94.5543 52.1293C94.5543 47.5481 94.5353 46.6849 94.4216 46.6358C94.1184 46.5181 92.5264 46.5475 92.4032 46.675Z" fill="#0C4A6E"/>
<path d="M99.5102 46.6456C99.3491 46.7731 99.4249 47.2146 99.6334 47.3911C99.7092 47.45 99.766 47.5481 99.766 47.5971C99.766 47.6854 100.382 48.8234 100.714 49.3433C100.77 49.4218 100.846 49.5787 100.894 49.6866C100.969 49.873 101.898 51.5113 102.135 51.8938C102.192 51.9723 102.268 52.1293 102.315 52.2372C102.362 52.3549 102.647 52.8552 102.95 53.3653L103.509 54.2972L103.556 56.9949L103.604 59.6926H104.788H105.973L106.001 56.9655L106.02 54.2482L106.304 53.7675C106.465 53.5125 106.589 53.2672 106.589 53.2378C106.589 53.1985 106.759 52.8748 106.977 52.5217C107.186 52.1587 107.404 51.7663 107.451 51.6584C107.498 51.5407 107.631 51.2954 107.735 51.1091C107.849 50.9227 108.095 50.4812 108.275 50.1281C108.455 49.7749 108.711 49.3237 108.834 49.1177C108.958 48.9117 109.1 48.6468 109.157 48.5291C109.204 48.4114 109.299 48.225 109.365 48.1171C109.896 47.2048 110 46.9791 110 46.8025C110 46.6848 109.943 46.5965 109.886 46.5867C109.384 46.5671 107.612 46.5867 107.574 46.6162C107.517 46.6848 106.551 48.6174 105.632 50.5401C105.196 51.4426 104.788 52.1881 104.741 52.1881C104.684 52.1881 104.561 52.0214 104.466 51.8154C104.371 51.6192 104.258 51.3837 104.22 51.3052C104.172 51.2268 103.642 50.1281 103.035 48.8724C102.268 47.3127 101.879 46.5965 101.765 46.5965C101.68 46.5965 101.168 46.5769 100.628 46.5671C100.06 46.5573 99.586 46.5867 99.5102 46.6456Z" fill="#0C4A6E"/>
<path d="M0.0319812 46.7143C0.00355347 46.7829 -0.00592245 49.7357 0.00355347 53.2672L0.0319812 59.6926H1.12171H2.21144L2.23987 54.4836C2.25882 49.9319 2.23987 49.255 2.11668 49.1471C1.95559 49.0098 1.92716 48.7939 2.0693 48.7057C2.12616 48.6762 2.21144 48.7449 2.25882 48.8724C2.3062 48.9999 2.39148 49.1667 2.43886 49.2452C2.48624 49.3237 2.56205 49.6082 2.61891 49.8828C2.76105 50.6186 2.91266 51.2366 3.00742 51.4524C3.0548 51.5603 3.18746 51.9821 3.30117 52.3843C3.42436 52.7865 3.54755 53.1593 3.58545 53.2182C3.61388 53.2672 3.74654 53.6498 3.86025 54.052C3.98344 54.4542 4.12558 54.827 4.16348 54.8858C4.21086 54.9349 4.24876 55.0624 4.24876 55.1801C4.25824 55.288 4.33405 55.5529 4.43828 55.7687C4.54252 55.9845 4.61832 56.2396 4.6278 56.3279C4.6278 56.4162 4.67518 56.5241 4.72256 56.5535C4.77942 56.5829 4.81732 56.6908 4.81732 56.7791C4.81732 56.8674 4.87417 57.0636 4.94998 57.2107C5.02579 57.3579 5.11107 57.6228 5.14898 57.7993C5.27216 58.4075 5.39535 58.4664 6.53246 58.4664C7.50848 58.4664 7.55586 58.4566 7.61271 58.2408C7.64114 58.1231 7.70747 57.9367 7.74538 57.8288C8.04861 57.0538 8.22865 56.5339 8.22865 56.4358C8.22865 56.3769 8.29498 56.2003 8.37079 56.0532C8.4466 55.8962 8.51293 55.7 8.51293 55.6118C8.51293 55.5333 8.55083 55.4254 8.58873 55.3665C8.63611 55.3175 8.76878 54.9643 8.88249 54.5915C8.9962 54.2089 9.14781 53.7675 9.22362 53.6106C9.28995 53.4438 9.48895 52.8552 9.65004 52.2862C9.8206 51.7173 9.99117 51.1875 10.0385 51.0992C10.0765 51.011 10.1428 50.7657 10.1807 50.5597C10.2091 50.3439 10.2849 50.1281 10.3228 50.0692C10.3702 50.0104 10.4365 49.7455 10.465 49.4806C10.5313 48.9607 10.645 48.7547 10.8535 48.7547C10.9482 48.7547 10.9577 48.8038 10.8914 48.9411C10.8251 49.049 10.8061 51.0404 10.8156 54.4051L10.8345 59.6926H11.9243H13.014V53.1691V46.6456L11.3557 46.6162C9.75427 46.5867 9.68794 46.5965 9.53633 46.8026C9.44157 46.9203 9.36576 47.1165 9.36576 47.244C9.36576 47.3617 9.32786 47.4892 9.28048 47.5187C9.2331 47.5579 9.16677 47.7541 9.12886 47.9699C9.09096 48.1857 9.0341 48.3819 8.98672 48.4114C8.94882 48.4408 8.88249 48.6076 8.85406 48.7939C8.81616 48.9901 8.73087 49.2648 8.65507 49.412C8.57926 49.5591 8.51293 49.7749 8.51293 49.8828C8.51293 50.0005 8.47502 50.1281 8.42764 50.1771C8.38974 50.236 8.25708 50.6088 8.13389 51.011C8.0107 51.4132 7.85909 51.884 7.79276 52.0606C7.71695 52.2274 7.66009 52.4039 7.66009 52.4628C7.66009 52.5119 7.59376 52.6884 7.51796 52.8356C7.44215 52.9925 7.37582 53.1887 7.37582 53.277C7.37582 53.3653 7.30948 53.5713 7.23368 53.7185C7.15787 53.8754 7.09154 54.0912 7.09154 54.1991C7.09154 54.3169 7.05364 54.4444 6.99678 54.5032C6.9494 54.5523 6.86412 54.8368 6.80726 55.1311C6.70303 55.6902 6.52298 55.9845 6.34294 55.8766C6.28609 55.8374 6.23871 55.6902 6.23871 55.5431C6.23871 55.3273 6.06814 54.7387 5.73648 53.8558C5.70806 53.7773 5.58487 53.3947 5.47116 53.022C5.35745 52.6394 5.22478 52.296 5.1774 52.2372C5.1395 52.1881 5.1016 52.0606 5.1016 51.9625C5.1016 51.8644 5.04474 51.6388 4.96893 51.472C4.89313 51.2954 4.74151 50.8246 4.61832 50.4224C4.50461 50.0202 4.37195 49.6474 4.32457 49.5885C4.28667 49.5395 4.24876 49.412 4.24876 49.2942C4.24876 49.1863 4.19191 48.9803 4.1161 48.8332C4.04029 48.686 3.95501 48.4212 3.91711 48.2446C3.8792 48.068 3.81287 47.8718 3.77497 47.8228C3.73706 47.7639 3.67073 47.5677 3.63283 47.3813C3.59493 47.1949 3.50017 46.9399 3.42436 46.8222C3.28222 46.6064 3.23484 46.5965 1.68079 46.5965C0.477349 46.5965 0.060409 46.626 0.0319812 46.7143Z" fill="#0C4A6E"/>
<path d="M39.8308 46.7143C39.8024 46.7829 39.7929 49.7357 39.8024 53.2672L39.8308 59.6926H41.0153H42.1998V53.1691V46.6456L41.0343 46.6162C40.1625 46.5965 39.8593 46.626 39.8308 46.7143Z" fill="#0C4A6E"/>
<path d="M69.4241 53.0416C69.4052 56.5928 69.4147 59.5553 69.4336 59.624C69.4526 59.7123 69.7463 59.7417 70.6181 59.7221L71.7647 59.6927L71.8121 57.6817L71.8595 55.6706L73.3282 55.6118C76.1141 55.5137 77.5545 54.8368 78.1988 53.3359C78.4642 52.7179 78.6821 51.2857 78.5968 50.7069C78.5684 50.4715 78.5021 50.0104 78.4547 49.6867C78.2273 48.1269 77.166 47.1459 75.2613 46.7535C74.6643 46.6358 73.9157 46.5966 71.9732 46.5966H69.4431L69.4241 53.0416ZM74.8254 48.7253C75.8014 49.1079 76.171 49.7357 76.171 51.0208C76.171 52.7571 75.5361 53.4536 73.7546 53.6596C73.2808 53.7185 72.7218 53.7872 72.4943 53.8166C71.8026 53.9147 71.8121 53.9637 71.8121 51.1091C71.8121 49.1766 71.8405 48.5585 71.9353 48.5193C72.1911 48.3918 74.38 48.5487 74.8254 48.7253Z" fill="#0C4A6E"/>
</svg>
